# Blender v3.1.2 OBJ File: 'TableLeg.blend'
# www.blender.org
mtllib TableLeg.mtl
o Leg_Cube
v 0.222488 -2.316139 -0.222488
v 0.222488 -2.761115 -0.222488
v 0.222488 -2.316139 0.222488
v 0.222488 -2.761115 0.222488
v -0.222488 -2.316139 -0.222488
v -0.222488 -2.761115 -0.222488
v -0.222488 -2.316139 0.222488
v -0.222488 -2.761115 0.222488
v 0.309165 -0.825633 -0.309165
v 0.309165 -0.825633 0.309165
v -0.309165 -0.825633 -0.309165
v -0.309165 -0.825633 0.309165
v 0.167331 -2.538627 -0.167331
v -0.167331 -2.538627 0.167331
v 0.167331 -2.538627 0.167331
v -0.167331 -2.538627 -0.167331
v -0.222488 -2.427383 0.222488
v 0.222488 -2.427383 -0.222488
v 0.222488 -2.427383 0.222488
v -0.222488 -2.427383 -0.222488
v 0.190038 -2.649871 -0.190038
v 0.190038 -2.649871 0.190038
v -0.190038 -2.649871 -0.190038
v -0.190038 -2.649871 0.190038
v 0.309165 0.011979 -0.309165
v 0.309165 0.011979 0.309165
v -0.309165 0.011979 -0.309165
v -0.309165 0.011979 0.309165
vt 0.625000 0.500000
vt 0.625000 0.250000
vt 0.625000 0.250000
vt 0.625000 0.500000
vt 0.562500 0.750000
vt 0.625000 0.750000
vt 0.625000 1.000000
vt 0.562500 1.000000
vt 0.562500 0.000000
vt 0.625000 0.000000
vt 0.562500 0.250000
vt 0.125000 0.500000
vt 0.375000 0.500000
vt 0.375000 0.750000
vt 0.125000 0.750000
vt 0.562500 0.500000
vt 0.625000 0.250000
vt 0.625000 0.500000
vt 0.625000 0.750000
vt 0.625000 1.000000
vt 0.625000 0.000000
vt 0.437500 0.250000
vt 0.500000 0.250000
vt 0.500000 0.500000
vt 0.437500 0.500000
vt 0.500000 0.750000
vt 0.437500 0.750000
vt 0.437500 0.000000
vt 0.500000 0.000000
vt 0.500000 1.000000
vt 0.437500 1.000000
vt 0.375000 1.000000
vt 0.375000 0.000000
vt 0.375000 0.250000
vt 0.875000 0.500000
vt 0.875000 0.750000
vt 0.625000 0.750000
vt 0.625000 0.000000
vt 0.625000 1.000000
vn 0.0000 -0.0581 -0.9983
vn 0.0000 0.0000 1.0000
vn -1.0000 0.0000 0.0000
vn 0.0000 -1.0000 0.0000
vn 1.0000 0.0000 0.0000
vn 0.0000 0.0000 -1.0000
vn 0.0000 -0.0581 0.9983
vn -0.9983 -0.0581 0.0000
vn 0.9983 -0.0581 0.0000
vn 0.0000 0.2000 -0.9798
vn 0.9798 0.2000 0.0000
vn -0.9798 0.2000 0.0000
vn 0.0000 0.2000 0.9798
vn 0.0000 -0.4442 -0.8959
vn 0.8959 -0.4442 0.0000
vn -0.8959 -0.4442 0.0000
vn 0.0000 -0.4442 0.8959
vn 0.0000 0.2800 0.9600
vn -0.9600 0.2800 0.0000
vn 0.9600 0.2800 0.0000
vn 0.0000 0.2800 -0.9600
vn 0.0000 1.0000 0.0000
usemtl Material
s off
f 1/1/1 5/2/1 11/3/1 9/4/1
f 19/5/2 3/6/2 7/7/2 17/8/2
f 17/9/3 7/10/3 5/2/3 20/11/3
f 6/12/4 2/13/4 4/14/4 8/15/4
f 18/16/5 1/1/5 3/6/5 19/5/5
f 20/11/6 5/2/6 1/1/6 18/16/6
f 9/4/6 11/3/6 27/17/6 25/18/6
f 7/7/7 3/6/7 10/19/7 12/20/7
f 5/2/8 7/10/8 12/21/8 11/3/8
f 3/6/9 1/1/9 9/4/9 10/19/9
f 23/22/10 16/23/10 13/24/10 21/25/10
f 21/25/11 13/24/11 15/26/11 22/27/11
f 24/28/12 14/29/12 16/23/12 23/22/12
f 22/27/13 15/26/13 14/30/13 24/31/13
f 16/23/14 20/11/14 18/16/14 13/24/14
f 13/24/15 18/16/15 19/5/15 15/26/15
f 14/29/16 17/9/16 20/11/16 16/23/16
f 15/26/17 19/5/17 17/8/17 14/30/17
f 4/14/18 22/27/18 24/31/18 8/32/18
f 8/33/19 24/28/19 23/22/19 6/34/19
f 2/13/20 21/25/20 22/27/20 4/14/20
f 6/34/21 23/22/21 21/25/21 2/13/21
f 25/18/22 27/35/22 28/36/22 26/37/22
f 10/19/5 9/4/5 25/18/5 26/37/5
f 11/3/3 12/21/3 28/38/3 27/17/3
f 12/20/2 10/19/2 26/37/2 28/39/2
