# Blender v3.1.2 OBJ File: 'ZeldaMasterSword.blend'
# www.blender.org
mtllib ZeldaMasterSwordGuard.mtl
o Guard_Cube.003
v 0.007907 -0.026414 -0.612129
v 1.006268 -0.009469 -0.504992
v 0.007907 -0.030114 0.607345
v 1.006268 -0.024396 0.500208
v 0.007907 0.026414 -0.612129
v 1.006268 0.009469 -0.504992
v 0.007907 0.030115 0.607345
v 1.006268 0.024396 0.500208
v 0.007907 -0.336374 -0.002392
v 1.006268 -0.225775 -0.000240
v 0.007907 0.336374 -0.002392
v 1.006268 0.225775 -0.000240
v 0.425372 -0.127060 -0.683317
v 0.425372 -0.144859 0.678533
v 0.425372 0.144859 0.678533
v 0.425372 0.127060 -0.683317
v 0.425372 0.418863 -0.002392
v 0.425372 -0.418863 -0.002392
v 0.934886 -0.056208 -1.976759
v 0.934886 0.056208 -1.976759
v 0.640618 -0.056208 -1.976759
v 0.640618 0.056208 -1.976759
v 0.584529 0.060958 2.017554
v 0.584529 -0.060957 2.017554
v 0.878796 0.060958 2.017554
v 0.627620 -0.091634 -1.637693
v 0.921889 -0.091634 -1.637693
v 0.921889 0.091634 -1.637693
v 0.627620 0.091634 -1.637693
v 0.871213 -0.109347 -1.318471
v 0.576945 0.109347 -1.318471
v 0.576945 -0.109347 -1.318471
v 0.871213 0.109347 -1.318471
v 0.814160 -0.118203 -1.036871
v 0.519892 0.118203 -1.036871
v 0.519892 -0.118203 -1.036871
v 0.814160 0.118203 -1.036871
v 0.086341 -0.056208 -2.057859
v 0.086341 0.056208 -2.057859
v 0.073342 -0.091634 -1.718793
v 0.073342 0.091634 -1.718793
v -0.010156 -0.091634 -1.740845
v -0.010156 0.091634 -1.740845
v -0.060830 0.109347 -1.421623
v -0.060830 -0.109347 -1.421623
v -0.144494 0.109347 -1.446930
v -0.144494 -0.109347 -1.446930
v -0.201547 0.118203 -1.165330
v -0.201547 -0.118203 -1.165330
v 0.878796 -0.060957 2.017554
v 0.581393 -0.102556 1.353670
v 0.875659 0.102556 1.353670
v 0.581393 0.102556 1.353670
v 0.875659 -0.102556 1.353670
v 0.588969 -0.081757 1.685612
v 0.883235 0.081757 1.685612
v 0.588969 0.081757 1.685612
v 0.883235 -0.081757 1.685612
v 0.839789 0.123708 1.016101
v 0.545521 0.123708 1.016101
v 0.839789 -0.123708 1.016101
v 0.545521 -0.123708 1.016101
v -0.180385 -0.102556 1.409869
v -0.180385 0.102556 1.409869
v -0.216254 0.123708 1.072300
v -0.216254 -0.123708 1.072300
v -0.084346 -0.102556 1.399662
v -0.084346 0.102556 1.399662
v -0.049073 -0.081757 1.731604
v -0.049073 0.081757 1.731604
v 0.089110 0.060958 2.052611
v 0.089110 -0.060957 2.052611
v 0.053838 -0.081757 1.720669
v 0.053838 0.081757 1.720669
v 0.719640 -0.418863 -0.002392
v 0.719640 -0.144859 0.678533
v 0.719640 0.144859 0.678533
v 0.719640 0.418863 -0.002392
v 0.719640 0.127060 -0.683317
v 0.719640 -0.127060 -0.683317
v 1.569648 -0.005855 -0.313008
v 1.569648 -0.008956 0.308493
v 1.569648 0.005855 -0.313008
v 1.569648 0.008956 0.308493
v 1.569648 -0.265536 -0.000508
v 1.569648 0.265536 -0.000508
v 1.088303 0.012518 -0.667032
v 1.088303 -0.012518 -0.667032
v 1.088303 -0.032250 0.661786
v 1.088303 0.032250 0.661786
v 1.088303 -0.298463 0.000222
v 1.088303 0.298463 0.000222
v 1.328975 0.011521 -0.614067
v 1.328975 -0.029683 0.608972
v 1.328975 0.274704 0.000071
v 1.328975 -0.011521 -0.614067
v 1.328975 0.029683 0.608972
v 1.328975 -0.274704 0.000071
vt 0.500000 0.125000
vt 0.625000 0.125000
vt 0.625000 0.250000
vt 0.500000 0.250000
vt 0.500000 0.625000
vt 0.625000 0.625000
vt 0.625000 0.750000
vt 0.500000 0.750000
vt 0.625000 0.000000
vt 0.500000 0.000000
vt 0.500000 0.000000
vt 0.625000 0.000000
vt 0.125000 0.625000
vt 0.375000 0.625000
vt 0.375000 0.750000
vt 0.125000 0.750000
vt 0.734604 0.532736
vt 0.765396 0.532736
vt 0.765396 0.532736
vt 0.734604 0.532736
vt 0.756425 0.717264
vt 0.743575 0.717264
vt 0.743575 0.717264
vt 0.756425 0.717264
vt 0.125000 0.500000
vt 0.375000 0.500000
vt 0.500000 0.500000
vt 0.625000 0.500000
vt 0.500000 0.000000
vt 0.625000 0.000000
vt 0.375000 0.000000
vt 0.375000 0.125000
vt 0.500000 1.000000
vt 0.375000 1.000000
vt 0.375000 0.250000
vt 0.500000 0.750000
vt 0.625000 0.750000
vt 0.625000 0.750000
vt 0.500000 0.750000
vt 0.500000 0.000000
vt 0.500000 0.000000
vt 0.875000 0.750000
vt 0.875000 0.750000
vt 0.500000 1.000000
vt 0.625000 0.500000
vt 0.500000 0.500000
vt 0.500000 0.250000
vt 0.625000 0.250000
vt 0.874822 0.500000
vt 0.625000 0.500000
vt 0.875000 0.500000
vt 0.500000 0.250000
vt 0.625000 0.250000
vt 0.500000 0.500000
vt 0.500000 0.250000
vt 0.500000 0.500000
vt 0.625000 0.750000
vt 0.875000 0.750000
vt 0.500000 0.000000
vt 0.500000 0.000000
vt 0.500000 0.000000
vt 0.500000 0.750000
vt 0.625000 0.000000
vt 0.625000 0.000000
vt 0.500000 0.000000
vt 0.500000 0.750000
vt 0.625000 0.750000
vt 0.500000 1.000000
vt 0.500000 1.000000
vt 0.500000 0.750000
vt 0.875000 0.750000
vt 0.875000 0.750000
vt 0.500000 1.000000
vt 0.500000 1.000000
vt 0.500000 0.750000
vt 0.500000 0.750000
vt 0.500000 1.000000
vt 0.500000 1.000000
vt 0.500000 1.000000
vt 0.500000 0.750000
vt 0.500000 0.750000
vt 0.500000 1.000000
vt 0.500000 1.000000
vt 0.500000 0.750000
vt 0.500000 0.000000
vt 0.500000 0.000000
vt 0.625000 0.500000
vt 0.500000 0.500000
vt 0.500000 0.500000
vt 0.625000 0.500000
vt 0.500000 0.500000
vt 0.500000 0.500000
vt 0.500000 0.250000
vt 0.625000 0.250000
vt 0.625000 0.250000
vt 0.500000 0.250000
vt 0.874822 0.500000
vt 0.874644 0.500000
vt 0.500000 0.250000
vt 0.500000 0.250000
vt 0.875000 0.500000
vt 0.500000 0.250000
vt 0.500000 0.250000
vt 0.500000 0.500000
vt 0.500000 0.500000
vt 0.500000 0.500000
vt 0.500000 0.250000
vt 0.817293 0.624605
vt 0.765396 0.532736
vt 0.875000 0.625000
vt 0.734604 0.532736
vt 0.682541 0.624605
vt 0.743575 0.717264
vt 0.756425 0.717264
vt 0.682541 0.624605
vt 0.817293 0.624605
vt 0.817293 0.624605
vt 0.682541 0.624605
vt 0.734604 0.532736
vt 0.682541 0.624605
vt 0.817293 0.624605
vt 0.765396 0.532736
vt 0.743575 0.717264
vt 0.756425 0.717264
vn 0.0000 -0.9277 0.3733
vn 0.0000 0.9192 -0.3939
vn 0.0000 -0.9946 -0.1039
vn -1.0000 0.0000 0.0000
vn 0.7805 0.0000 0.6252
vn 0.7811 0.0000 -0.6244
vn 0.0000 0.9277 0.3733
vn 0.0000 -0.9192 -0.3939
vn -0.2286 -0.8823 -0.4114
vn -0.2429 0.8847 0.3978
vn -0.1681 0.0000 -0.9858
vn -0.2286 0.8823 -0.4114
vn -0.1681 0.0000 0.9858
vn -0.2429 -0.8847 0.3978
vn 0.0000 0.9946 -0.1039
vn 0.0151 -0.9945 -0.1033
vn 0.9993 0.0000 0.0383
vn 0.0000 0.0000 -1.0000
vn 0.0000 0.0000 1.0000
vn 0.9999 0.0000 0.0134
vn 0.0000 -0.9980 0.0625
vn 0.0706 0.0000 0.9975
vn 0.0000 0.9980 0.0625
vn 0.9876 0.0000 0.1568
vn 0.0087 -0.9985 -0.0540
vn 0.0000 0.9985 -0.0554
vn 0.0000 -0.9985 -0.0554
vn 0.0000 -0.9995 -0.0314
vn 0.0000 0.9995 -0.0314
vn 0.1753 0.0000 -0.9845
vn 0.9801 0.0000 0.1986
vn 0.9661 0.0000 0.2583
vn -0.9661 0.0000 -0.2583
vn 0.0000 0.9997 -0.0250
vn 0.0000 -0.9997 -0.0250
vn -0.9993 0.0000 -0.0383
vn -0.1448 0.0000 0.9895
vn 0.0151 0.9945 -0.1033
vn 0.1448 0.0000 -0.9895
vn -0.9876 0.0000 -0.1568
vn 0.0087 0.9985 -0.0540
vn 0.1597 0.0000 -0.9872
vn -0.1597 0.0000 0.9872
vn -0.9801 0.0000 -0.1986
vn 0.0054 -0.9995 -0.0303
vn -0.1753 0.0000 0.9845
vn 0.0054 0.9995 -0.0303
vn 0.0046 0.9981 0.0621
vn 0.9944 0.0000 -0.1057
vn 0.0044 -0.9981 0.0623
vn 0.9997 0.0000 -0.0228
vn 0.9421 0.0000 -0.3353
vn -0.9421 0.0000 0.3353
vn -0.9944 0.0000 0.1057
vn 0.0046 -0.9981 0.0621
vn -0.0736 0.0000 -0.9973
vn 0.0736 0.0000 0.9973
vn 0.0044 0.9981 0.0623
vn 0.0719 0.0000 0.9974
vn -0.0689 0.0000 -0.9976
vn 0.0042 0.9980 0.0623
vn -0.0654 0.0000 -0.9979
vn 0.0042 -0.9980 0.0623
vn 0.5283 -0.7877 0.3170
vn 0.5283 0.0000 0.8491
vn 0.5283 0.7804 -0.3345
vn 0.5283 0.0000 -0.8491
vn 0.5283 -0.7804 -0.3345
vn 0.5283 0.7877 0.3170
vn 1.0000 0.0000 0.0000
vn 0.3165 -0.8262 -0.4662
vn 0.3165 0.8262 -0.4662
vn 0.3341 -0.8271 0.4520
vn 0.3341 0.8271 0.4520
vn -0.6360 0.7159 0.2881
vn -0.6360 -0.7159 0.2881
vn -0.6305 0.7135 -0.3058
vn -0.6305 -0.7135 -0.3058
vn -0.8922 0.0000 -0.4517
vn -0.8917 0.0000 0.4527
vn 0.0914 0.9238 0.3717
vn 0.0914 -0.9238 0.3717
vn 0.0901 0.9154 -0.3923
vn 0.0901 -0.9154 -0.3923
vn 0.2149 0.0000 -0.9766
vn 0.2143 0.0000 0.9768
usemtl Material
s off
f 18/1/1 75/2/1 76/3/1 14/4/1
f 17/5/2 78/6/2 79/7/2 16/8/2
f 27/9/3 26/10/3 21/11/3 19/12/3
f 9/13/4 11/14/4 5/15/4 1/16/4
f 97/17/5 94/18/5 82/19/5 84/20/5
f 96/21/6 93/22/6 83/23/6 81/24/6
f 3/25/4 7/26/4 11/14/4 9/13/4
f 15/27/7 77/28/7 78/6/7 17/5/7
f 13/29/8 80/30/8 75/2/8 18/1/8
f 1/31/9 13/29/9 18/1/9 9/32/9
f 7/26/10 15/27/10 17/5/10 11/14/10
f 5/15/11 16/8/11 13/33/11 1/34/11
f 11/14/12 17/5/12 16/8/12 5/15/12
f 3/35/13 14/4/13 15/27/13 7/26/13
f 9/32/14 18/1/14 14/4/14 3/35/14
f 29/36/15 28/37/15 20/38/15 22/39/15
f 21/11/16 26/10/16 40/40/16 38/41/16
f 28/37/17 27/42/17 19/43/17 20/38/17
f 21/44/18 22/39/18 20/38/18 19/43/18
f 25/45/19 23/46/19 24/47/19 50/48/19
f 58/49/20 56/50/20 25/45/20 50/51/20
f 55/52/21 58/53/21 50/48/21 24/47/21
f 24/47/22 23/46/22 71/54/22 72/55/22
f 56/50/23 57/56/23 23/46/23 25/45/23
f 33/57/24 30/58/24 27/42/24 28/37/24
f 26/10/25 32/59/25 45/60/25 42/61/25
f 31/62/26 33/57/26 28/37/26 29/36/26
f 30/63/27 32/59/27 26/10/27 27/9/27
f 34/64/28 36/65/28 32/59/28 30/63/28
f 35/66/29 37/67/29 33/57/29 31/62/29
f 31/62/30 32/68/30 47/69/30 46/70/30
f 37/67/31 34/71/31 30/58/31 33/57/31
f 79/7/32 80/72/32 34/71/32 37/67/32
f 13/33/33 16/8/33 35/66/33 36/73/33
f 16/8/34 79/7/34 37/67/34 35/66/34
f 80/30/35 13/29/35 36/65/35 34/64/35
f 40/74/36 41/75/36 39/76/36 38/77/36
f 26/78/37 29/36/37 41/75/37 40/74/37
f 29/36/38 22/39/38 39/76/38 41/75/38
f 22/39/39 21/44/39 38/77/39 39/76/39
f 45/79/40 44/80/40 43/81/40 42/82/40
f 31/62/41 29/36/41 43/81/41 44/80/41
f 29/36/42 26/78/42 42/82/42 43/81/42
f 32/68/43 31/62/43 44/80/43 45/79/43
f 49/83/44 48/84/44 46/70/44 47/69/44
f 32/59/45 36/65/45 49/85/45 47/86/45
f 36/73/46 35/66/46 48/84/46 49/83/46
f 35/66/47 31/62/47 46/70/47 48/84/47
f 59/87/23 60/88/23 53/89/23 52/90/23
f 53/89/48 60/88/48 65/91/48 64/92/48
f 62/93/21 61/94/21 54/95/21 51/96/21
f 61/97/49 59/87/49 52/90/49 54/98/49
f 52/90/23 53/89/23 57/56/23 56/50/23
f 51/96/50 55/52/50 69/99/50 67/100/50
f 51/96/21 54/95/21 58/53/21 55/52/21
f 54/98/51 52/90/51 56/50/51 58/49/51
f 76/101/52 77/28/52 59/87/52 61/97/52
f 14/4/21 76/3/21 61/94/21 62/93/21
f 15/27/53 14/4/53 62/93/53 60/88/53
f 77/28/23 15/27/23 60/88/23 59/87/23
f 65/91/54 66/102/54 63/103/54 64/92/54
f 62/93/55 51/96/55 63/103/55 66/102/55
f 60/88/56 62/93/56 66/102/56 65/91/56
f 51/96/57 53/89/57 64/92/57 63/103/57
f 68/104/54 67/100/54 69/99/54 70/105/54
f 57/56/58 53/89/58 68/104/58 70/105/58
f 55/52/59 57/56/59 70/105/59 69/99/59
f 53/89/60 51/96/60 67/100/60 68/104/60
f 74/106/54 73/107/54 72/55/54 71/54/54
f 23/46/61 57/56/61 74/106/61 71/54/61
f 57/56/62 55/52/62 73/107/62 74/106/62
f 55/52/63 24/47/63 72/55/63 73/107/63
f 10/108/64 4/109/64 76/101/64 75/110/64
f 4/109/65 8/111/65 77/28/65 76/101/65
f 12/112/66 6/113/66 79/7/66 78/6/66
f 6/113/67 2/114/67 80/72/67 79/7/67
f 2/114/68 10/108/68 75/110/68 80/72/68
f 8/111/69 12/112/69 78/6/69 77/28/69
f 86/115/70 85/116/70 81/24/70 83/23/70
f 84/20/70 82/19/70 85/116/70 86/115/70
f 98/117/71 96/21/71 81/24/71 85/116/71
f 93/22/72 95/118/72 86/115/72 83/23/72
f 94/18/73 98/117/73 85/116/73 82/19/73
f 95/118/74 97/17/74 84/20/74 86/115/74
f 12/112/75 8/111/75 90/119/75 92/120/75
f 4/109/76 10/108/76 91/121/76 89/122/76
f 6/113/77 12/112/77 92/120/77 87/123/77
f 10/108/78 2/114/78 88/124/78 91/121/78
f 2/114/79 6/113/79 87/123/79 88/124/79
f 8/111/80 4/109/80 89/122/80 90/119/80
f 92/120/81 90/119/81 97/17/81 95/118/81
f 89/122/82 91/121/82 98/117/82 94/18/82
f 87/123/83 92/120/83 95/118/83 93/22/83
f 91/121/84 88/124/84 96/21/84 98/117/84
f 88/124/85 87/123/85 93/22/85 96/21/85
f 90/119/86 89/122/86 94/18/86 97/17/86
